<svg width="156" height="62" fill="none" xmlns="http://www.w3.org/2000/svg"><path d="M10.4 57c0-1-.4-2-1.2-2.7A3.7 3.7 0 006.5 53c-1 0-1.8.3-2.5 1-.7.6-1.2 1.3-1.3 2.2h-1v-3H0v7.6h1.6v-3.1h1A4 4 0 004 60.1c.7.7 1.5 1 2.5 1s2-.4 2.7-1.2c.8-.7 1.2-1.7 1.2-2.8zm-1.7 0c0 .8-.2 1.4-.6 1.9a2 2 0 01-3.2 0c-.4-.5-.7-1-.7-1.8 0-.7.3-1.3.7-1.8a2.1 2.1 0 013.1 0c.5.5.7 1 .7 1.8zM13 53.3v7.6h1.6v-2.5h1.6c.8 0 1.4-.3 2-.7.4-.5.7-1.1.7-1.9 0-.7-.3-1.3-.8-1.8s-1.1-.7-2-.7H13zm3.1 1.4c.3 0 .6.2.8.4.3.2.4.4.4.7 0 .3-.1.6-.4.8-.2.2-.5.3-.8.3h-1.5v-2.2H16zM28.3 61v-7.7h-1.5L23.1 58v-4.8h-1.6v7.6h1.4l3.7-4.8v4.8h1.7zM30.3 59.4v3H32V61h4.5v1.6h1.7v-3h-1v-6.2H32v2.3a7.5 7.5 0 01-.5 2.5c0 .3-.2.5-.3.8l-.3.4-.1.1h-.5zm3.3-3.8v-.9h2v4.7h-3.2l.1-.1.3-.4.4-.8.3-1v-1.5zM47.3 61v-7.7H46L42.1 58v-4.8h-1.6v7.6h1.4l3.8-4.8v4.8h1.6zM51.9 53.3h-1.7v2.3c0 1 .3 1.6.8 2.1.5.6 1.1.8 2 .8.7 0 1.3-.1 1.8-.4v2.8h1.6v-7.6h-1.6v3.2l-.2.1-.6.3-.8.1c-.4 0-.7 0-1-.3-.2-.3-.3-.6-.3-1v-2.4zM66 53.3h-1.6v3H61v-3h-1.7v7.6h1.7v-3.1h3.3v3.1H66v-7.6zM73 57.7H71l1-2.5.9 2.5zm.5 1.4l.7 1.8h1.7l-3-7.6h-1.7l-3 7.6h1.7l.7-1.8h2.9zM83 53.3h-1.6v7.6H83v-2.2l1-1 2.2 3.2h2L85 56.4l2.8-3.1H86l-3 3.3v-3.3zM91.5 57c0-.6.2-1.2.7-1.7.4-.5 1-.7 1.7-.7s1.3.2 1.7.7c.5.5.8 1 .8 1.8 0 .7-.3 1.3-.8 1.8-.4.5-1 .7-1.7.7s-1.3-.2-1.7-.7c-.5-.5-.7-1.1-.7-1.8zm-1.7 0a4 4 0 004.1 4 4 4 0 004.2-4c0-1-.4-2-1.2-2.7a4 4 0 00-3-1.2 4 4 0 00-4.1 4zM104.7 56.6l-2.6-3.3h-1.4v7.6h1.6v-5l2.4 3 2.5-3v5h1.6v-7.6h-1.4l-2.7 3.3zM118.4 53.3h-6.5v7.6h1.6v-6.2h3.2V61h1.7v-7.6zM125.3 57.7h-1.8l.9-2.5 1 2.5zm.6 1.4l.6 1.8h1.8l-3-7.6h-1.8l-3 7.6h1.8l.6-1.8h3zM137 53.3h-1.7v3h-3.2v-3h-1.7v7.6h1.7v-3.1h3.2v3.1h1.7v-7.6zM141.7 53.3H140v7.6h1.7v-7.6zM150.4 53.3H147c-.8 0-1.4.2-1.9.7-.5.5-.7 1-.7 1.8l.1.8.4.7.4.4.3.3h.1l-1.6 3h1.8l1.4-2.8h1.4V61h1.7v-7.6zm-4.4 2.5c0-.3.1-.6.3-.8.2-.2.5-.3.7-.3h1.7v2H147a1 1 0 01-.7-.2 1 1 0 01-.3-.7z" fill="#46466E"/><path d="M5 0H0v36h5V22.6c0-2.2.5-4 1.7-5.3 1-1.2 2.6-1.9 4.5-1.9 1.7 0 3 .6 4.1 1.8a6.3 6.3 0 011.7 4.4V36h5V21.6c0-3.3-.9-5.9-2.7-7.9-1.8-2-4.2-2.9-7-2.9a10.4 10.4 0 00-7 2.8l-.3.3V0z" fill="#F0145A"/><path d="M33.1 0H28v36h5.1V0zM63.4 25.4l.3-2.5a11.7 11.7 0 00-12-12.1c-3.5 0-6.5 1.2-9 3.7a12 12 0 00-3.7 8.9c0 3.6 1.3 6.6 3.8 9.2 2.5 2.6 5.6 3.9 9 3.9a13.3 13.3 0 006.8-1.8 17 17 0 003.6-2.8l.5-.6-3.4-3.3-.8 1a9 9 0 01-2.6 1.9c-1.3.6-2.6 1-4 1-2 0-3.7-.7-5.2-2a7.4 7.4 0 01-2.5-4.5h19.2zM51.6 15.1a7 7 0 014.7 1.7c1.3 1.1 2 2.5 2.3 4.3H44.4a8.3 8.3 0 012.5-4.3 7 7 0 014.7-1.7zM87.4 34.5c0 2.2-.7 4-2 5.5a6.8 6.8 0 01-5.2 2.1 9.7 9.7 0 01-6.4-2.5l-1-1-.3-.3-3.4 3.3.5.5c.2.4.7.8 1.3 1.3L73 45a14.8 14.8 0 007.1 1.8 12 12 0 008.9-3.5 12 12 0 003.5-8.8V11.3h-5.1v2.6l-.9-.8c-.6-.5-1.4-1-2.7-1.5a10.8 10.8 0 00-12 2.8 12 12 0 00-3.4 8.7 12 12 0 003.4 8.7 10.8 10.8 0 0014.3 1.6l1-.7.3-.4v2.2zM73.5 23c0-2.1.7-4 2-5.4 1.4-1.5 3-2.3 5-2.3 1.8 0 3.4.8 4.8 2.3 1.4 1.5 2 3.3 2 5.4 0 2.2-.6 4-2 5.5a6.5 6.5 0 01-4.9 2.2c-1.8 0-3.5-.8-4.8-2.2a7.6 7.6 0 01-2-5.5zM119.3 36V20c0-2.6-1-4.8-2.9-6.5a10.3 10.3 0 00-7.4-2.7 13.3 13.3 0 00-6.2 1.6l-2 1.4-1.1 1-.4.6 3.3 3.3.7-.8c.4-.6 1.1-1.1 2.2-1.7 1-.5 2.3-.8 3.5-.8 1.5 0 2.8.5 3.7 1.3 1 1 1.5 2 1.5 3.3l-9 1.6c-2.2.3-4 1.2-5.3 2.6-1.2 1.4-1.9 3-1.9 5s.8 3.6 2.5 5a9 9 0 006.2 2.3c.9 0 1.7-.1 2.5-.4a11 11 0 003.7-1.6l1-.8.3-.3v2.5h5.1zm-11.8-4.2a5 5 0 01-3.2-.9c-.8-.6-1.2-1.3-1.2-2.1 0-1 .3-1.7.9-2.3.5-.5 1.3-1 2.2-1l8-1.4v.5c0 2.4-.6 4.1-1.8 5.4a6.5 6.5 0 01-4.9 1.8zM130.6 0h-5v36h5V0zM154 14.1l-.3-.3-1-.9-1.5-1a11.2 11.2 0 00-5.2-1.1 9 9 0 00-6.2 2.1 6.6 6.6 0 00-1.6 8.6c.6 1 1.4 1.7 2.4 2.1a23.4 23.4 0 006 2.2A8 8 0 01149 27c.6.4.9 1 .9 1.8 0 .9-.4 1.7-1 2.2a5 5 0 01-3.1.8c-1.2 0-2.3-.3-3.4-.8a9 9 0 01-2-1.4 20 20 0 01-.8-.8l-3.3 3.3.3.5 1.2 1c.5.5 1.1 1 1.8 1.3a12.5 12.5 0 006.2 1.6c2.7 0 5-.8 6.6-2.3a7 7 0 001.7-9c-.6-1-1.4-1.6-2.4-2-.9-.6-2-1-3-1.4l-3-.9a7 7 0 01-2.3-1.1c-.7-.5-1-1.1-1-1.8s.3-1.3 1-1.8a4 4 0 012.6-.8c.9 0 1.7.2 2.4.6a6 6 0 011.7.9l.6.6L154 14z" fill="#323264"/></svg>