<svg width="78" height="31" fill="none" xmlns="http://www.w3.org/2000/svg"><path d="M5.2 28.5c0-.5-.2-1-.6-1.4-.4-.4-.8-.5-1.4-.5-.4 0-.9.1-1.2.4a2 2 0 00-.7 1.1H.8v-1.5H0v3.9h.8v-1.6h.5c.1.5.3.9.7 1.2.3.3.8.4 1.2.4.6 0 1-.2 1.4-.5.4-.4.6-.9.6-1.5zm-.8 0c0 .4-.2.7-.4 1a1 1 0 01-1.5 0c-.3-.3-.4-.6-.4-1 0-.3.1-.6.4-.9.2-.2.4-.3.7-.3.3 0 .6.1.8.3.2.3.4.6.4 1zM6.5 26.6v3.9h.8v-1.3h.8c.4 0 .7-.1 1-.4.2-.2.3-.5.3-.9 0-.3 0-.6-.3-.9-.3-.2-.6-.4-1-.4H6.5zm1.6.8l.4.1.1.4-.1.4-.4.2h-.8v-1.1h.8zM14.1 30.5v-3.9h-.7l-1.9 2.5v-2.5h-.8v3.9h.7l2-2.5v2.5h.7zM15.2 29.7v1.5h.8v-.7h2.3v.7h.8v-1.5h-.5v-3H16v1.1a3.8 3.8 0 01-.2 1.3l-.2.3-.2.3h-.2zm1.6-1.9v-.4h1v2.3h-1.6l.2-.3.2-.3.1-.6.1-.7zM23.7 30.5v-3.9h-.8l-1.8 2.5v-2.5h-.8v3.9h.7l1.8-2.5v2.5h.9zM26 26.6H25v1.2c0 .5.1.8.4 1 .2.3.6.5 1 .5s.7-.1.9-.3v1.5h.8v-3.9h-.8v1.6l-.1.1-.3.2h-.4c-.2 0-.4 0-.5-.2a.8.8 0 01-.2-.5v-1.2zM33 26.6h-.8v1.6h-1.7v-1.6h-.8v3.9h.8v-1.6h1.7v1.6h.8v-3.9zM36.5 28.8h-1l.5-1.2.5 1.2zm.2.8l.4.9h.8l-1.4-3.9h-1l-1.4 3.9h.9l.3-1h1.4zM41.5 26.6h-.8v3.9h.8v-1.1l.5-.6 1.1 1.7h1l-1.6-2.3 1.5-1.6h-1l-1.5 1.7v-1.7zM45.7 28.5c0-.3.2-.6.4-.8.2-.3.5-.4.9-.4.3 0 .6.1.8.4.3.2.4.5.4.8 0 .4-.1.7-.4 1-.2.2-.5.3-.8.3-.4 0-.7-.1-1-.4-.1-.2-.3-.5-.3-.9zm-.8 0c0 .6.2 1 .6 1.5.4.3.9.5 1.5.5a2 2 0 002-2 2 2 0 00-2-2 2 2 0 00-2.1 2zM52.4 28.3L51 26.6h-.8v3.9h.8v-2.6l1.3 1.6 1.2-1.6v2.6h.8v-3.9h-.7l-1.3 1.7zM59.2 26.6h-3.3v3.9h.9v-3.1h1.6v3h.8v-3.8zM62.7 28.8h-1l.5-1.2.5 1.2zm.2.8l.4.9h.8l-1.5-3.9h-.8l-1.5 3.9h.8l.4-1h1.4zM68.5 26.6h-.8v1.6H66v-1.6h-.8v3.9h.8v-1.6h1.7v1.6h.8v-3.9zM70.8 26.6H70v3.9h.8v-3.9zM75.2 26.6h-1.7c-.4 0-.7.2-1 .4-.2.2-.3.5-.3.9v.4l.2.3.2.3h.2v.1l-.7 1.5h.8l.8-1.4h.7v1.4h.8v-3.9zM73 28c0-.2 0-.3.2-.4l.3-.1h.9v1h-.9c-.1 0-.2 0-.3-.2a.5.5 0 01-.2-.3z" fill="#fff"/><path d="M2.5 0H0v18h2.5v-6.7c0-1.1.3-2 .8-2.6a3 3 0 012.3-1c.8 0 1.5.3 2 .9.6.6.9 1.3.9 2.2V18H11v-7.2c0-1.6-.5-3-1.4-4-.9-.9-2-1.4-3.5-1.4-.4 0-.8 0-1.2.2a5.2 5.2 0 00-2.3 1.2l-.1.1V0z" fill="#F0145A"/><path d="M16.6 0H14v18h2.6V0zM31.7 12.7l.1-1.3a5.8 5.8 0 00-6-6 6 6 0 00-4.4 1.8 6 6 0 00-1.9 4.5c0 1.8.7 3.3 2 4.6 1.2 1.3 2.7 2 4.4 2a6.7 6.7 0 003.4-1 8.5 8.5 0 001.8-1.4l.2-.2-1.6-1.7-.4.5-1.3 1c-.7.3-1.3.4-2 .4-1 0-2-.3-2.6-1a3.7 3.7 0 01-1.3-2.2h9.6zm-5.9-5.1c1 0 1.7.3 2.4.8.6.6 1 1.3 1.1 2.1h-7.1c.2-.8.6-1.5 1.3-2.1.6-.5 1.4-.8 2.3-.8zM43.7 17.2c0 1.2-.3 2-1 2.8-.7.7-1.6 1-2.6 1a4.9 4.9 0 01-3.2-1.2l-.5-.5-.2-.2-1.6 1.7.2.3.6.6 1.1.8 1.6.6c.6.2 1.3.3 2 .3a6 6 0 006.2-6.2V5.6h-2.6V7l-.5-.4c-.2-.2-.7-.5-1.3-.7a5.4 5.4 0 00-6 1.4 6 6 0 00-1.7 4.4 6 6 0 001.7 4.3 5.4 5.4 0 007.1.8l.5-.3.2-.2v1zm-7-5.6c0-1.1.4-2 1-2.8.8-.7 1.6-1.1 2.5-1.1 1 0 1.8.4 2.5 1.1a4 4 0 011 2.8c0 1-.4 2-1 2.7-.7.7-1.6 1.1-2.5 1.1-.9 0-1.7-.4-2.4-1.1-.7-.8-1-1.7-1-2.7zM59.7 18v-8c0-1.3-.5-2.4-1.5-3.3-1-.9-2.2-1.3-3.7-1.3a6.7 6.7 0 00-3 .8c-.4.2-.8.4-1 .7l-.7.5-.2.3 1.7 1.7.3-.5 1.1-.8c.6-.3 1.2-.4 1.8-.4.8 0 1.4.2 1.9.7.5.4.7 1 .7 1.6l-4.5.8c-1.1.2-2 .6-2.6 1.3-.7.7-1 1.5-1 2.5s.4 1.8 1.2 2.5c.9.8 2 1.1 3.2 1.1.4 0 .8 0 1.2-.2a5.5 5.5 0 001.8-.8l.5-.3.2-.2V18h2.6zm-6-2c-.6 0-1.2-.2-1.5-.5-.5-.4-.6-.7-.6-1.1 0-.5.1-.8.4-1.1a2 2 0 011.1-.6l4-.6v.2c0 1.2-.3 2-.9 2.7-.6.6-1.4 1-2.5 1zM65.3 0h-2.5v18h2.5V0zM77 7l-.2-.1-.4-.4-.8-.5a5.6 5.6 0 00-2.6-.6c-1.2 0-2.3.4-3 1-1 .8-1.3 1.6-1.3 2.6 0 .7.1 1.2.4 1.8.3.4.7.8 1.2 1a11.7 11.7 0 003 1.1c.5.2.9.3 1.2.6.3.2.4.5.4.9s-.1.8-.5 1.1c-.3.3-.8.4-1.5.4-.6 0-1.1-.1-1.7-.4-.5-.3-.9-.5-1-.7a10 10 0 01-.4-.4L68.1 16l.2.3.6.5 1 .7a6.2 6.2 0 003 .7 5 5 0 003.3-1.1 3.5 3.5 0 00.8-4.5c-.3-.5-.6-.8-1.1-1a9 9 0 00-1.6-.7l-1.5-.5c-.4 0-.8-.3-1.1-.5a1 1 0 01-.5-1c0-.2.2-.6.5-.8a2 2 0 011.3-.4l1.2.3.8.4.3.3L77 7.1z" fill="#fff"/></svg>