<svg width="42" height="47" fill="none" xmlns="http://www.w3.org/2000/svg"><path fill-rule="evenodd" clip-rule="evenodd" d="M30.3 26.1h-12l5.3-16h6L26 20.8h6l-1.8 5.4z" fill="url(#paint0_linear)"/><path fill-rule="evenodd" clip-rule="evenodd" d="M5.9 46.9H0L13.3 6.1C14.4 2.4 17.8 0 21.6 0h10.6a9 9 0 017.5 3.6 9 9 0 011.1 8.2L38.1 20a8.7 8.7 0 01-7.8 6l5-15.5a4 4 0 00-.4-3.7c-.7-1-2-1.5-3.5-1.5h-9a4.1 4.1 0 00-4 2.8L6 47z" fill="#F0145A"/><defs><linearGradient id="paint0_linear" x1="18.3" y1="23.1" x2="31.6" y2="30" gradientUnits="userSpaceOnUse"><stop stop-color="#F0145A"/><stop offset="1" stop-color="#693264"/></linearGradient></defs></svg>