<svg width="128" height="33" fill="none" xmlns="http://www.w3.org/2000/svg"><path d="M6.46.26L.14 3.9l6.32 3.64-6.32 3.58 6.32 3.65-6.32 3.58 6.32 3.64 8.2-4.66 4.48 4.66v-7.2l6.32-3.64-19-10.9zm11.53 18.72L7.61 8.16l10.38 5.92v4.9zM127.86 16.5h-2.24v-3.64h-2.01v3.64h-2.3v1.93h2.3v9.45h2v-9.47h2.25V16.5zm-11.48-.28a3.82 3.82 0 00-3.39 1.7V16.5h-2v11.38h2v-6.52a3.31 3.31 0 01.86-2.5 2.99 2.99 0 012.94-.66c.3.11.56.28.8.5a2.35 2.35 0 01.62 1.81v7.28h2.01v-7.4a4.92 4.92 0 00-.51-2.27c-.32-.6-.8-1.12-1.38-1.48-.6-.3-1.28-.46-1.95-.45v.03zm-16.5 5.14c.1-.92.55-1.77 1.26-2.38.72-.6 1.64-.93 2.58-.92a3.5 3.5 0 013.62 3.3h-7.47zm9.47 1.71a6.84 6.84 0 00-.63-3.93 5.2 5.2 0 00-4.94-3.02c-1.09 0-2.16.28-3.1.8a5.52 5.52 0 00-2.13 2.17c-.51.94-.77 2-.74 3.07a6.1 6.1 0 00.74 3.07c.5.9 1.23 1.66 2.13 2.17a6.27 6.27 0 006.43-.17c.9-.6 1.56-1.49 1.9-2.5h-2.08c-.24.52-.67.94-1.2 1.19a4.37 4.37 0 01-4.54-.4 3.81 3.81 0 01-1.32-2.45h9.47zm-19.38 3.1c-.72 0-1.43-.17-2.06-.51a4.11 4.11 0 01-1.5-1.48 4.32 4.32 0 010-4.1c.36-.6.88-1.12 1.5-1.47a4.42 4.42 0 014.13 0c.62.35 1.13.86 1.5 1.47a4.32 4.32 0 010 4.1 4.11 4.11 0 01-1.5 1.48c-.63.34-1.35.52-2.07.51zm4.08-9.67v2a5.1 5.1 0 00-1.84-1.66 5.35 5.35 0 00-2.52-.62c-1.03 0-2.04.28-2.93.8a5.52 5.52 0 00-2.13 2.15 5.87 5.87 0 000 5.98c.51.89 1.24 1.63 2.13 2.16a5.63 5.63 0 005.4.2 5.2 5.2 0 001.89-1.68v1.6a3.45 3.45 0 01-.98 2.55c-.78.66-1.79.98-2.81.91-.66.03-1.3-.1-1.9-.4-.5-.2-.93-.53-1.26-.96a2 2 0 01-.4-1.2h-2c0 .83.28 1.63.8 2.28a4.7 4.7 0 002.06 1.54 6.83 6.83 0 005.57-.06c.87-.4 1.6-1.03 2.12-1.82.55-.87.83-1.88.8-2.9V16.5h-2zm-14 11.38h2.03V16.5h-2l-.04 11.38zm0-13.43h2.03v-2.5h-2l-.04 2.5zm-4.48 13.43h2V11.46h-2v16.42zm-4.48 0h2V11.46h-2v16.42zm-11.14-6.49c.11-.92.56-1.77 1.27-2.39.72-.6 1.64-.92 2.58-.9a3.5 3.5 0 013.62 3.3h-7.47zm9.47 1.71a6.83 6.83 0 00-.63-3.93 5.2 5.2 0 00-4.94-3.02c-1.08 0-2.15.28-3.1.8a5.52 5.52 0 00-2.12 2.17c-.51.94-.77 2-.74 3.07a6.1 6.1 0 00.74 3.07c.5.9 1.23 1.65 2.13 2.16a6.27 6.27 0 006.43-.17c.89-.6 1.56-1.48 1.89-2.5h-2.07c-.24.53-.67.95-1.2 1.2a4.37 4.37 0 01-4.54-.4 3.59 3.59 0 01-1.32-2.45h9.47zM57.6 16.5h-2.24v-3.64h-1.98v3.64h-2.3v1.93h2.3v9.45h2.01v-9.47h2.24l-.03-1.91zm-13.98 9.76c-.72 0-1.43-.17-2.06-.51a4.11 4.11 0 01-1.5-1.48 4.32 4.32 0 010-4.1c.35-.63.87-1.14 1.5-1.48a4.42 4.42 0 014.13 0c.62.36 1.13.87 1.5 1.48a4.32 4.32 0 010 4.1 3.97 3.97 0 01-3.56 2zm4.1-14.31v6.48a4.99 4.99 0 00-4.35-2.21c-1.02 0-2 .27-2.87.8a6.06 6.06 0 000 10.36c.86.5 1.85.78 2.87.78.87.03 1.74-.16 2.52-.57.73-.4 1.36-.97 1.84-1.64v1.93h2V11.95h-2zM29.66 26.29c-.72 0-1.44-.17-2.07-.52a4.11 4.11 0 01-1.5-1.47 4.32 4.32 0 010-4.1c.35-.63.87-1.14 1.5-1.48a4.42 4.42 0 014.13 0c.62.36 1.14.87 1.5 1.48a4.32 4.32 0 010 4.1 3.97 3.97 0 01-3.56 2zm4.07-9.79v1.93a4.98 4.98 0 00-4.36-2.21 5.84 5.84 0 00-5.05 2.95 6.06 6.06 0 002.12 8.2 5.84 5.84 0 005.46.22c.72-.4 1.35-.97 1.83-1.64v1.93h2.01V16.5h-2z" fill="#000"/></svg>