<svg width="111" height="49" fill="none" xmlns="http://www.w3.org/2000/svg"><path fill-rule="evenodd" clip-rule="evenodd" d="M21.3 3.7l.2 1.3C16 16 23 15.2 23 15.2l1-.2v.3a26 26 0 0120.3 5.3c1-16-23-16.9-23-16.9z" fill="#F8B829"/><path d="M13.1 41.4c-.5 3.6 2.5 5.8 3 4.6 1.3-1.7 1.8-1.2 2.5-3.8l.8-.9a47.5 47.5 0 006.6-9c1.4-2.4 2-5.3 1.5-8.1-.5-1.5-1.2-2.8-2.1-4-.3-.6-.4-1.3-.4-2 0-1-.4-2-1-3a3 3 0 01-.7-2.2l.3-2.8c0-1.7-.2-3.5-1-5 0 0-.8-1.6-1.6-1.2a8.4 8.4 0 00-9 0s-17.7 11.3-1.8 32.8c-.5 2.8 1.2 5.7 2.6 7.6" fill="#005D86"/><path d="M21.3 16.8L18.9 6s-1.4-4.2-5.1 1l-.6-.8c-3.4 4.8-8 10.6-7 16.8a8 8 0 003.6 5.7 7.6 7.6 0 009.6-.8c1.9-1.6 3.5-4.9 1.9-11.1z" fill="#fff"/><path fill-rule="evenodd" clip-rule="evenodd" d="M24 15.3s11.5-1.7 20.3 5.3c0 0-8.3-10.7-21.5-8.7 0 0-1 2.6 1.3 3.4z" fill="#F19320"/><path d="M44.3 20.6c.2-2.7-.5-5.5-2-7.9-.2-.1-1.1 2-1.1 2.1 0 .9.1 1.7.6 2.5.6 1.1 2.1 2 2.4 3.3" fill="#E95253"/><path d="M1.2 36.2c1.6.6 3.4.7 5 .3 2.4.3 3.7 1 6.5 1.4 3.4 0 6.8-.4 10.3-.7 1 0 3.5-.2 4.5.6.5.5.4 1.9.4 2.6-2-.8-4.2-1.2-6.4-1.3H14c-1.7 0-3.4 0-5.1-.4l-4.7-1c-1.1-.3-2.5-.4-3-1.5z" fill="#9B5F48"/><path d="M23.2 38.4c0 .4-.3 1.2-.6 1.2-.4 0-.7-.8-.7-1.2V37c0-.4.2-.8.6-.8a.9.9 0 01.7.8v1.4z" fill="#969595"/><path d="M21.9 38.6c0 .3-.3 1-.5 1-.3 0-.5-.7-.5-1v-1.1c0-.3.2-.6.4-.6a.6.6 0 01.6.6v1z" fill="#838383"/><path d="M9.7 38.4c0 .4.3 1.2.6 1.2s.7-.8.7-1.2V37c0-.4-.3-.8-.6-.8a.9.9 0 00-.7.8v1.4z" fill="#969595"/><path d="M11 38.6c0 .3.2 1 .5 1s.5-.7.5-1v-1.1c0-.3-.2-.6-.4-.6a.6.6 0 00-.6.6v1z" fill="#838383"/><path d="M23.8 11.6c.3-.7.8-2.9-.7-6.6-.2-.6-1-1.9-2.4-1.2-.2.3 2.6 2 2 8.2 0 0-.7 2.6 1.4 3.3-.3-.6-.5-1.3-.5-2 0-.6 0-1.1.2-1.7zm-.1.3z" fill="#003B55"/><path d="M21.3 9.3c.6 3-.9 4.6-3.7 4.6-2.3 0-5.5-.5-5.8-3.2-.3-2.3 1.2-5.5 3.6-6.2 3.3-1 5.4 2 6 4.8z" fill="#F8B829"/><path d="M19.6 9.1a2 2 0 01-1.3 2.6c-.3.2-.7.2-1 .2-1.4 0-3.4-.4-3.5-2A3.7 3.7 0 0116 6c2-.5 3.3 1.3 3.5 3z" fill="#005D86"/><path fill-rule="evenodd" clip-rule="evenodd" d="M18.5 8.8a1.7 1.7 0 01-1.7 1.7A1.7 1.7 0 0115 8.8 1.7 1.7 0 0116.8 7a1.7 1.7 0 011.7 1.8z" fill="#151410"/><path fill-rule="evenodd" clip-rule="evenodd" d="M17 7.7c0 .3-.3 0-.3 0s.3-.4.3 0zM16 7.7c-.1 0-.2.1-.2.3a.3.3 0 00-.2.4v.1s.9-.8 1-.7a.6.6 0 00-.6-.1z" fill="#fff"/><path d="M43.6 36a.7.7 0 01.5.1l1.5 1.6c-2.2 2.8-6.5 3.4-9.7 2.2a8.6 8.6 0 01-5.4-8 8.8 8.8 0 014.9-8.6 9.1 9.1 0 0110 1.5L44 26.4c-.7 1-1.7 0-2.4-.4a5.2 5.2 0 00-7.4 4.5 6.4 6.4 0 002.2 6A5.4 5.4 0 0043 36l.6-.2zM50.6 22.2v18h-3.4v-18h3.4zM56.8 27.8v12.5h-3.3V27.8h3.3zM57.2 24.1c0 2.6-4.2 2.7-4.2 0 0-2.6 4.2-2.6 4.2 0zM68.8 30.5c-.5.7-1 .3-1.7 0-.7-.4-1.6-.5-2.4-.3-1.7.3-2.2 2-2.2 3.6s.3 3.4 1.8 4a3.2 3.2 0 002.5 0c.6-.4 1.4-1.4 2-.6l1 1.2a6.6 6.6 0 01-6.9 1.7 6.2 6.2 0 01-3.9-5.9 6.2 6.2 0 013.7-6.2 6.6 6.6 0 017 1.4l-.9 1.1zM74.9 22.2v10.2h.5a1 1 0 00.9-.4l2.8-3.7a1.3 1.3 0 011-.5h3.2l-3.6 4.5c-.3.4-.6.7-1 .9.3.3.7.6.9 1l3.9 6h-3a1.2 1.2 0 01-1.2-.5L76.5 35a.9.9 0 00-1-.5H75v5.6h-3.4v-18H75zM88.2 22.2v10.2h.5a1 1 0 00.9-.4l2.8-3.7a1.3 1.3 0 011.1-.5h3L93 32.3l-1 1c.3.2.6.5.9 1l3.8 6h-3a1.2 1.2 0 01-1.1-.6L89.8 35a.9.9 0 00-1-.5h-.6v5.7h-3.4V22.2h3.4zM103 43.6a1 1 0 01-1.1.7h-2.5l2.4-5.1-5-11.5h2.9a1 1 0 01.9.6l2.4 6 .4 1.4.5-1.4 2.3-6a1 1 0 01.9-.6h2.7L103 43.6z" fill="#fff"/></svg>