<svg width="144" height="36" fill="none" xmlns="http://www.w3.org/2000/svg"><g clip-path="url(#clip0)" fill="#fff"><path d="M36.5 18c0-4.05-1.39-8-3.94-11.17A18.28 18.28 0 0022.44.48c-4-.93-8.2-.5-11.92 1.22a18.14 18.14 0 00-8.6 8.25 17.78 17.78 0 004.64 21.87 18.4 18.4 0 0022.64.58H17.8a14.74 14.74 0 01-7.96-2.58 14.44 14.44 0 01-5.2-6.47A14.22 14.22 0 017.84 7.84a14.8 14.8 0 0115.71-3.22 14.57 14.57 0 016.58 5.11 14.27 14.27 0 012.65 7.84V28.8c2.41-3.1 3.72-6.9 3.72-10.8z"/><path d="M27.36 26.99v-7.56H21.7a3.9 3.9 0 01-4.22 2.29 3.95 3.95 0 01-2.25-1.19 3.85 3.85 0 011.56-6.3 3.98 3.98 0 014.57 1.5h5.73a9.07 9.07 0 00-2.47-4.31 9.26 9.26 0 00-9.43-2.16 9.23 9.23 0 00-4.15 2.8 9.04 9.04 0 001.82 13.29 9.3 9.3 0 004.76 1.61l9.75.03zM49.16 12.92a6.34 6.34 0 00-5.8 3.83 6.11 6.11 0 001.37 6.75 6.3 6.3 0 0010.72-4.38 6.06 6.06 0 00-1.83-4.4 6.22 6.22 0 00-4.46-1.8zm0 9.44a3.2 3.2 0 01-3-2c-.16-.4-.23-.82-.22-1.24A3.14 3.14 0 0147.88 16a3.26 3.26 0 014.31 1.84c.15.4.22.84.19 1.28a3.08 3.08 0 01-1.97 3c-.4.17-.82.24-1.25.24zm11.36-7.08V13.2h-3.07v11.74h3.07v-5.56a2.9 2.9 0 011.07-2.4 2.98 2.98 0 012.58-.59v-3.37a3.69 3.69 0 00-3.65 2.26zm14.21-.64a4.7 4.7 0 00-3.87-1.72 6.08 6.08 0 00-4.19 1.92 5.91 5.91 0 00-1.57 4.28 5.85 5.85 0 003.47 5.64c.72.33 1.5.52 2.3.55a4.76 4.76 0 003.86-1.72V25h3.07V13.2h-3.07v1.44zm-3.3 7.79a3.23 3.23 0 01-3.1-2.03 3.1 3.1 0 01-.2-1.28c0-.86.35-1.69.97-2.3a3.3 3.3 0 014.65 0c.61.61.96 1.44.96 2.3a3.12 3.12 0 01-2 3.08c-.4.16-.84.24-1.28.23zm15.65-9.5a4.09 4.09 0 00-3.54 1.64V13.2H80.5v11.74h3.05v-6.3c0-2.03 1.12-2.9 2.62-2.9a2.23 2.23 0 011.74.66 2.17 2.17 0 01.6 1.74v6.83h3.07v-7.2c0-3.1-1.97-4.85-4.49-4.85zm16.1 1.78a4.5 4.5 0 00-3.8-1.79 6.03 6.03 0 00-4.23 1.79 5.87 5.87 0 00-1.68 4.21 5.8 5.8 0 001.68 4.23 5.95 5.95 0 004.23 1.77 4.57 4.57 0 003.8-1.78v1.27a2.69 2.69 0 01-.86 2.16 2.77 2.77 0 01-2.24.72 3.1 3.1 0 01-3.12-1.65l-2.61 1.5A6.05 6.05 0 0099.98 30c3.13 0 6.2-1.74 6.2-5.58V13.2h-3v1.51zm-3.32 7.43a3.28 3.28 0 01-2.95-2.02 3.16 3.16 0 01.74-3.47 3.26 3.26 0 015.3 3.53 3.12 3.12 0 01-1.81 1.76c-.41.15-.85.22-1.28.2zm14.66-9.22a6.17 6.17 0 00-4.47 1.78 6 6 0 00-1.76 4.42 5.93 5.93 0 001.86 4.52 6.09 6.09 0 004.65 1.67 6.08 6.08 0 005.13-2.51l-2.43-1.4a3.3 3.3 0 01-2.67 1.2c-.73.09-1.48-.08-2.1-.48a3.07 3.07 0 01-1.28-1.72h9c.08-.4.12-.8.13-1.2a5.87 5.87 0 00-3.66-5.8 6.08 6.08 0 00-2.4-.48zM111.4 18a2.9 2.9 0 011.1-1.79c.57-.44 1.3-.66 2.02-.61.7-.03 1.4.2 1.93.65.55.44.9 1.06 1.01 1.75h-6.06zm20.18-3.37a4.7 4.7 0 00-3.82-1.7 6.08 6.08 0 00-4.2 1.9 5.92 5.92 0 00-1.57 4.29 5.85 5.85 0 001.58 4.27 6 6 0 004.19 1.92 4.76 4.76 0 003.87-1.72V25h3.06V13.2h-3.06l-.05 1.43zm-3.3 7.79a3.22 3.22 0 01-3.07-2.04 3.1 3.1 0 01-.2-1.28c0-.86.34-1.68.96-2.29a3.3 3.3 0 014.65 0c.61.61.96 1.43.96 2.3a3.1 3.1 0 01-.91 2.37 3.2 3.2 0 01-2.39.95v-.01zm12.1-7.2V13.2h-3.06v11.74h3.07v-5.56a2.9 2.9 0 011.07-2.4 2.98 2.98 0 012.58-.59v-3.37a3.7 3.7 0 00-3.65 2.26v-.06z"/></g><defs><clipPath id="clip0"><path fill="#fff" d="M0 0h144v36H0z"/></clipPath></defs></svg>