<svg width="132" height="28" fill="none" xmlns="http://www.w3.org/2000/svg"><path d="M1.67 26.67l2.44-3.28-2.3-2.5h.7l3.3 3.68v-3.68h.55v3.68l3.3-3.68h.69l-2.3 2.5 2.45 3.28h-.68L7.7 23.79l-1.34 1.46v1.42H5.8v-1.42l-1.35-1.47-2.12 2.89h-.67zm10.17 0v-5.78h.55v5.04l3.9-5.04h.56v5.78h-.56v-5.04l-3.9 5.04h-.55zm6.1 0l.1-.51a1.5 1.5 0 00.75.05.77.77 0 00.28-.15c.1-.08.18-.19.25-.33s.13-.33.2-.58c.06-.25.11-.55.15-.9a39.91 39.91 0 00.14-3.06v-.3h3.91v5.78h-.55v-5.28h-2.83v.15a28.94 28.94 0 01-.17 3.13c-.05.36-.12.68-.2.93a3.3 3.3 0 01-.26.61 1.03 1.03 0 01-.71.5 2.36 2.36 0 01-1.06-.05zm7.5-2.9a3.03 3.03 0 01.83-2.11 2.86 2.86 0 012.13-.9 2.83 2.83 0 012.57 1.52c.24.45.37.96.37 1.5a3.07 3.07 0 01-1.45 2.61c-.45.28-.96.41-1.52.41a2.87 2.87 0 01-2.1-.9 3.1 3.1 0 01-.84-2.12zm.59 0c0 .7.22 1.3.68 1.78.46.49 1.02.73 1.68.73.42 0 .81-.11 1.17-.33a2.55 2.55 0 001.18-2.17c0-.7-.23-1.29-.7-1.77a2.22 2.22 0 00-1.67-.74c-.42 0-.82.11-1.18.34a2.58 2.58 0 00-1.17 2.17zm7 2.9v-5.78h.56v5.04l3.9-5.04h.56v5.78h-.56v-5.04l-3.9 5.04h-.55zm1-8.03l.45-.1c.15.55.5.83 1.06.83s.92-.28 1.06-.83l.47.1a1.6 1.6 0 01-.53.94c-.28.25-.61.37-1 .37s-.72-.13-1-.37a1.62 1.62 0 01-.52-.94zm9.49 8.03v-5.78h.55v3.7l3.57-3.7h.73l-2.52 2.56 2.6 3.22h-.7l-2.28-2.83-1.4 1.42v1.4h-.55zm5.87-2.9a3.03 3.03 0 01.84-2.11 2.86 2.86 0 012.13-.9 2.83 2.83 0 012.57 1.52c.25.45.37.96.37 1.5a3.07 3.07 0 01-1.45 2.61c-.45.28-.96.41-1.52.41a2.87 2.87 0 01-2.1-.9 3.1 3.1 0 01-.84-2.12zm.6 0c0 .7.23 1.3.68 1.78.46.49 1.02.73 1.69.73.41 0 .8-.11 1.16-.33a2.55 2.55 0 001.18-2.17c0-.7-.23-1.29-.7-1.77a2.22 2.22 0 00-1.67-.74c-.42 0-.81.11-1.17.34-.36.22-.65.52-.86.91-.2.39-.31.8-.31 1.26zm7 2.9v-5.78h.5l2.35 3.32 2.35-3.32h.5v5.78h-.56v-4.82l-2.31 3.2-2.29-3.2v4.82H57zm7.8 0v-5.78h4.78v5.78H69v-5.28h-3.67v5.28h-.56zm5.87 0l.1-.51a1.5 1.5 0 00.75.05.78.78 0 00.29-.15c.1-.08.18-.19.25-.33a5.93 5.93 0 00.35-1.48l.1-1.3.04-1.76v-.3h3.91v5.78h-.56v-5.28h-2.83v.15a28.85 28.85 0 01-.17 3.13c-.04.36-.11.68-.2.93-.08.26-.17.46-.25.61a1.04 1.04 0 01-.71.5 2.36 2.36 0 01-1.06-.05zm7.5-2.9a3.28 3.28 0 01.77-2.14 2.63 2.63 0 011.95-.88c.53 0 1 .14 1.4.4.4.27.71.63.93 1.09a3.6 3.6 0 01.3 1.76h-4.77c.05.7.29 1.25.72 1.67.44.4.95.6 1.54.6.75 0 1.41-.3 1.97-.9l.39.34c-.33.36-.68.62-1.05.81-.37.2-.82.29-1.33.29a2.72 2.72 0 01-1.98-.84 2.94 2.94 0 01-.62-.96 3.4 3.4 0 01-.22-1.24zm.58-.26h4.19c-.02-.3-.08-.58-.18-.84-.1-.27-.22-.5-.39-.72a1.7 1.7 0 00-.63-.5 1.95 1.95 0 00-.87-.19c-.56 0-1.05.21-1.45.64-.4.43-.62.96-.67 1.6zm6.4 3.16v-5.78h.55v3.7l3.56-3.7h.73l-2.51 2.56 2.6 3.22h-.7l-2.28-2.83-1.4 1.42v1.4h-.56zm5.87-2.9a3.05 3.05 0 011.44-2.61 2.94 2.94 0 013.78.67l-.39.4a3.9 3.9 0 00-.88-.71c-.3-.17-.64-.25-1.03-.25-.42 0-.8.11-1.17.34a2.58 2.58 0 00-1.16 2.17c0 .7.23 1.29.7 1.77.45.49 1.01.73 1.67.73.69 0 1.32-.33 1.91-.99l.4.37c-.32.36-.66.65-1.04.85-.37.2-.8.3-1.3.3a2.86 2.86 0 01-2.55-1.51 3.13 3.13 0 01-.38-1.52zM12.27 14.42c-.58.43-1.3.76-2.13.97-.82.24-1.66.35-2.54.35a7.16 7.16 0 01-2.98-.55 5.13 5.13 0 01-1.95-1.56 6.8 6.8 0 01-1.11-2.46c-.22-.96-.32-2.02-.32-3.17 0-2.48.55-4.39 1.66-5.72C4.01.93 5.63.26 7.75.26a8.66 8.66 0 014.35.94l-.91 3.1c-.45-.21-.9-.38-1.34-.5a5.66 5.66 0 00-1.5-.17c-1.04 0-1.84.35-2.38 1.06-.55.68-.82 1.78-.82 3.31 0 .63.07 1.2.2 1.73.14.53.34.99.62 1.38.27.39.62.7 1.05.94.44.21.96.32 1.54.32.65 0 1.19-.08 1.64-.23.45-.18.84-.39 1.2-.62l.87 2.9zm11.08-5.77l.15-2.09h-.1L22.16 8.7l-5.2 6.63h-2.39V.67h3.8v6.98l-.18 2h.12l1.2-2.09 5.25-6.9h2.4v14.67h-3.8V8.65zm17.63-4.61h-4.12v11.3h-3.91V4.03h-4.12V.67h12.15v3.37zm10.47 4.6l.15-2.08h-.09L50.26 8.7l-5.2 6.63h-2.4V.67h3.8v6.98l-.17 2h.11l1.2-2.09 5.25-6.9h2.4v14.67h-3.8V8.65zm30.3-4.6h-4.62v11.3h-3.8V.66h12.2v14.66h-3.79V4.04zm7.03-2.52A17 17 0 0194.91.38c1.01 0 1.86.12 2.54.37A3.63 3.63 0 0199.9 3.4c.18.63.26 1.33.26 2.12 0 .86-.02 1.73-.08 2.6a34.15 34.15 0 00-.03 5.02c.06.79.2 1.53.44 2.23h-3.1l-.61-2.02h-.15A5.3 5.3 0 0195 14.92a4.9 4.9 0 01-2.66.65c-.68 0-1.3-.1-1.84-.3a4.27 4.27 0 01-1.4-.88 4.2 4.2 0 01-1.22-3.1c0-.9.2-1.66.58-2.26.4-.63.98-1.13 1.72-1.5.76-.4 1.66-.65 2.69-.8 1.05-.15 2.22-.2 3.5-.14.14-1.1.06-1.88-.23-2.34-.3-.5-.95-.74-1.96-.74-.76 0-1.57.08-2.42.24-.84.15-1.53.36-2.07.61l-.9-2.84zm4.82 10.9c.76 0 1.36-.16 1.8-.49.45-.35.78-.72 1-1.11V8.9c-.6-.06-1.19-.07-1.75-.03-.55.04-1.03.13-1.46.26-.43.14-.77.34-1.02.6-.26.24-.38.57-.38.96 0 .55.15.98.46 1.29.34.3.78.44 1.35.44zM103.35.68h2.77l.44 1.76h.11c.51-.75 1.1-1.3 1.79-1.65A5.6 5.6 0 01111 .26c1.82 0 3.2.58 4.11 1.76.92 1.15 1.37 3.02 1.37 5.6 0 1.25-.14 2.38-.44 3.4-.29 1-.73 1.85-1.3 2.55a5.53 5.53 0 01-2.11 1.62c-.82.37-1.76.55-2.83.55-.6 0-1.1-.04-1.49-.14a4.63 4.63 0 01-1.17-.41v6.01h-3.8V.67zm6.5 2.81c-.73 0-1.32.19-1.74.56-.41.37-.73.93-.97 1.67v6.1c.28.22.57.4.88.53.33.12.76.18 1.28.18 1.1 0 1.9-.38 2.45-1.15.55-.78.82-2.06.82-3.84 0-1.29-.21-2.29-.64-3-.43-.7-1.12-1.05-2.07-1.05zm14.08 5.78h-1.03v6.07h-3.79V.67h3.8V6.9l.9-.4 3.41-5.84h4.06l-3.53 5.57-1.49 1.11 1.63 1.15 3.95 6.83h-4.35l-3.56-6.07z" fill="#fff"/><path d="M64.34 10.67C65.81 10.67 67 9.47 67 8a2.66 2.66 0 00-2.66-2.67A2.66 2.66 0 0061.7 8a2.66 2.66 0 002.65 2.67z" fill="#F1C650"/></svg>