<svg width="161" height="40" fill="none" xmlns="http://www.w3.org/2000/svg"><g clip-path="url(#clip0)" fill="#fff"><path d="M57.6 24.4c-1.5 0-2.2-1-2.2-3V16H60v-2.1h-4.6v-3.5h-2.2v11.2c0 3.1 1.1 4.9 4 4.9 1.3 0 2.5-.5 3.1-1l-.7-1.7c-.4.3-1 .6-2 .6zm9.7-10.8c-1.6 0-3.1.4-4.2 1.1l.6 1.8c1-.5 1.9-1 3.4-1 2.5 0 2.9 1.7 2.9 4-.9-.6-2.2-.8-3.2-.8-2.7 0-4.7 1.4-4.7 4 0 2.3 1.6 3.8 3.9 3.8 2 0 3.2-.9 4-1.8v1.6h2v-7.6c0-3.2-1.2-5-4.7-5zM70 23a4 4 0 01-3.3 1.6c-1.4 0-2.2-.8-2.2-2 0-1.4 1.3-2 2.6-2 1.1 0 2 .3 2.9.8V23zM82 13.6c-1.7 0-3.4.7-4.2 1.8v-1.5h-2.3v17.9H78v-6.1c.8.6 2.2.8 3.5.8 4 0 6.5-2.8 6.5-6.6 0-3.7-2.2-6.3-5.8-6.3zm-1 10.9c-1.1 0-2.1-.2-3.3-1v-6.1c.8-1 2.2-1.7 3.7-1.7 2.5 0 4 1.8 4 4.3 0 2.6-1.6 4.5-4.3 4.5zm21.1-10.9l-3.6 1c-.9-.7-2-1-3.2-1-3.2 0-5.2 2-5.2 4.5 0 1.8 1 3.4 2.9 4.1-.3.3-.4.7-.4 1 0 .4.1.8.3 1-2.4.6-4 1.8-4 3.8 0 2.7 2.7 4 6.4 4s6.4-1.3 6.4-4-2.7-4-6.4-4h-.8l-.2-.8.1-.6h.9c3 0 5.1-2 5.1-4.5a4 4 0 00-.6-2.1l2.4-.6v-1.8zM95.4 26c2.7 0 4.3.8 4.3 2.2 0 1.4-1.7 2.1-4.3 2.1-2.6 0-4.3-.8-4.3-2.1 0-1.4 1.6-2.2 4.3-2.2zm0-5c-1.9 0-3-1.2-3-2.7 0-1.6 1.1-2.8 3-2.8s3 1.2 3 2.8c0 1.6-1.3 2.6-3 2.6zm14.4-7.3c-4.1 0-6.5 2.9-6.5 6.5 0 3.9 2.7 6.5 6.8 6.5 1.6 0 3.5-.6 4.7-1.7l-.7-1.7c-.8.7-2.3 1.3-3.9 1.3-2.4 0-4.2-1.4-4.4-3.7h9.7l.1-1.5c0-3.4-2.6-5.7-5.8-5.7zm-4 5.4c.2-2 1.6-3.3 3.9-3.3 2.2 0 3.5 1.2 3.6 3.3h-7.6zm15-3.7V14h-2.3v12.4h2.2v-8.8c.5-1 1.2-1.8 2.6-1.8.8 0 1.1.1 1.7.5l.8-2c-.4-.4-1-.5-2-.5-1.5 0-2.4.7-3 1.6zm7.4 11h2.2V13.9h-2.2v12.4zm1.2-18.4c-.8 0-1.5.5-1.5 1.3 0 1 .7 1.5 1.5 1.5.7 0 1.3-.6 1.3-1.5 0-.8-.6-1.3-1.3-1.3zm11.3 5.8c-1.6 0-3.2.8-4 1.7v-1.5h-2.3v12.4h2.2v-9c.8-.9 2.1-1.6 3.6-1.6 2.3 0 3.5 1.3 3.5 3.8v6.8h2.3V19c0-3.9-2-5.4-5.3-5.4zm20.3 5.6c0-3.4-2.6-5.7-5.8-5.7-4.1 0-6.5 2.9-6.5 6.5 0 3.9 2.7 6.5 6.7 6.5 1.7 0 3.5-.6 4.7-1.7l-.7-1.7c-.8.7-2.2 1.3-3.8 1.3-2.5 0-4.2-1.4-4.4-3.7h9.6l.2-1.5zm-10-.3c.3-2 1.8-3.3 4-3.3s3.6 1.2 3.7 3.3H151zM40.4 19v-.2c-.1-2.4-.7-4.6-1.6-6.7a24.7 24.7 0 01-37 16.4l.6 1.2.7 1.2A20.9 20.9 0 009 36.7l.2.1 1 .7h.1a14.2 14.2 0 002.4 1.1l.3.1 1.2.4.2.1 1.1.3h.3l1.3.3h.2a25.7 25.7 0 002.8.2c11.3 0 20.4-9 20.4-20v-1zm-5-12.2a20.5 20.5 0 00-4.2-3.6 18.7 18.7 0 01-25.8 3A20 20 0 000 17.4 24.5 24.5 0 0035.4 6.8zm-7.8-5.4a20.6 20.6 0 00-15.9.4 24.6 24.6 0 0015.9-.4z"/></g><defs><clipPath id="clip0"><path fill="#fff" d="M0 0h161v40H0z"/></clipPath></defs></svg>